<?xml version="1.0" standalone="no"?>
<!DOCTYPE svg PUBLIC "-//W3C//DTD SVG 20010904//EN"
 "http://www.w3.org/TR/2001/REC-SVG-20010904/DTD/svg10.dtd">
<svg version="1.0" xmlns="http://www.w3.org/2000/svg"
 width="200.000000pt" height="60.000000pt" viewBox="0 0 300.000000 99.000000"
 preserveAspectRatio="xMidYMid meet">
<metadata>
Created by potrace 1.10, written by Peter Selinger 2001-2011
</metadata>
<g transform="translate(0.000000,99.000000) scale(0.100000,-0.100000)"
fill="#38761d" stroke="none">
<path d="M311 778 c-70 -20 -123 -64 -159 -133 -53 -101 -26 -236 61 -310 43
-37 118 -65 172 -65 83 0 195 61 226 124 6 12 -5 4 -25 -17 -148 -157 -406
-59 -406 153 0 69 25 125 75 169 51 44 93 61 155 61 66 0 115 -21 169 -73 24
-23 39 -33 33 -21 -21 40 -90 93 -143 108 -59 18 -107 19 -158 4z m-145 -206
c-8 -21 -13 -49 -11 -63 1 -13 0 -16 -2 -5 -4 16 -7 17 -15 5 -12 -17 -2 19
18 68 19 45 26 42 10 -5z m4 -112 c0 -5 -4 -10 -10 -10 -5 0 -10 5 -10 10 0 6
5 10 10 10 6 0 10 -4 10 -10z"/>
<path d="M411 687 c-1 -32 3 -39 25 -47 34 -13 34 -14 34 16 0 16 -5 24 -12
21 -7 -2 -12 -10 -10 -17 1 -6 -3 -10 -10 -8 -7 3 -16 20 -19 39 l-6 34 -2
-38z"/>
<path d="M440 705 c0 -9 6 -12 15 -9 8 4 12 10 9 15 -8 14 -24 10 -24 -6z"/>
<path d="M2730 702 l-36 -3 -18 -102 c-47 -257 -46 -267 20 -267 29 0 34 3 34
24 0 13 -5 26 -11 28 -8 3 -2 52 19 163 18 87 30 159 29 159 -1 1 -18 0 -37
-2z m-5 -84 c-7 -69 -20 -137 -33 -183 -5 -18 -5 -39 1 -53 11 -24 5 -38 -12
-27 -16 9 -13 56 10 174 11 58 23 116 25 129 9 47 15 19 9 -40z"/>
<path d="M765 688 c-2 -7 -18 -83 -35 -168 -17 -85 -33 -165 -36 -177 -6 -21
-3 -23 34 -23 44 0 41 -4 58 93 5 30 10 37 30 37 96 0 177 49 189 114 9 45
-16 101 -54 120 -38 20 -179 22 -186 4z m176 -22 c26 -11 49 -61 43 -92 -12
-63 -75 -100 -171 -103 -33 -1 -53 -28 -53 -72 0 -26 -5 -42 -15 -46 -9 -3
-17 -4 -19 -2 -4 4 16 123 29 179 3 14 8 41 11 60 3 19 10 47 16 62 10 26 12
27 77 24 36 -2 73 -6 82 -10z"/>
<path d="M813 641 c-7 -11 -15 -42 -19 -70 -9 -68 10 -92 61 -81 19 4 35 5 35
2 0 -3 13 6 28 21 16 15 30 25 33 23 2 -2 2 16 0 40 -2 33 -10 49 -28 64 -34
26 -94 27 -110 1z m101 -17 c9 -8 16 -31 16 -50 0 -30 -5 -37 -35 -50 -19 -7
-46 -14 -60 -14 -26 0 -26 0 -19 58 3 31 8 60 11 65 8 13 71 7 87 -9z"/>
<path d="M2260 697 c0 -1 -9 -49 -20 -107 -40 -203 -41 -212 -25 -237 21 -32
72 -32 77 0 2 12 -2 27 -9 32 -9 8 -5 43 17 153 16 79 32 147 35 153 4 5 -12
9 -34 9 -23 0 -41 -1 -41 -3z m36 -49 c-3 -18 -13 -64 -21 -103 -25 -112 -28
-150 -15 -174 10 -20 9 -22 -7 -19 -26 5 -27 56 -3 163 12 50 24 107 27 128 3
20 10 37 15 37 7 0 8 -13 4 -32z"/>
<path d="M372 668 c-17 -17 -15 -28 6 -28 16 -1 16 -1 -1 -11 -27 -16 -50 -4
-42 22 5 15 4 19 -4 15 -19 -12 -13 -47 10 -53 16 -4 17 -8 7 -14 -10 -6 -8
-9 7 -9 25 0 52 50 32 62 -9 6 -9 10 3 18 8 5 10 10 5 10 -6 0 -16 -5 -23 -12z"/>
<path d="M1611 630 c-6 -28 -11 -60 -11 -70 0 -16 -7 -20 -39 -20 -38 0 -39 0
-72 -75 l-34 -75 -7 47 c-3 27 -7 76 -7 111 l-1 62 -40 0 c-22 0 -40 -5 -40
-10 0 -6 11 -72 25 -146 26 -139 24 -164 -11 -178 -8 -3 -24 -6 -33 -6 -10 0
-23 -11 -29 -24 -13 -30 3 -36 58 -25 51 11 103 76 164 201 28 59 54 107 58
108 4 0 5 -6 3 -12 -3 -7 -13 -52 -23 -100 l-19 -88 38 0 38 0 12 75 12 75 63
0 c62 0 63 -1 55 -22 -5 -13 -12 -45 -15 -73 l-7 -50 34 0 35 0 32 159 c17 87
34 164 37 172 4 11 -5 14 -35 14 l-40 0 -7 -47 c-13 -97 -10 -93 -77 -93 l-60
0 6 38 c20 113 22 102 -17 102 -34 0 -36 -1 -46 -50z m49 2 c0 -9 -4 -31 -9
-48 -10 -35 6 -64 35 -64 13 0 7 -6 -16 -18 -31 -15 -37 -25 -52 -82 -9 -36
-17 -67 -17 -69 -1 -2 -3 -2 -6 1 -14 14 39 298 56 298 5 0 9 -8 9 -18z m186
-24 c-4 -24 -11 -61 -16 -83 -5 -22 -14 -66 -20 -97 -6 -32 -16 -61 -22 -64
-8 -5 -9 6 -3 37 10 61 8 82 -10 95 -19 14 -19 24 -1 24 26 0 44 28 51 80 4
27 11 50 17 50 6 0 7 -17 4 -42z m-425 -95 c1 -81 4 -100 19 -118 14 -17 50
-3 50 18 0 7 8 24 17 37 10 14 18 31 20 38 2 18 11 27 19 19 3 -3 -9 -34 -27
-69 -17 -35 -38 -75 -46 -89 -18 -36 -83 -106 -83 -91 0 7 6 15 14 18 23 9 27
48 11 131 -24 133 -27 173 -10 173 12 0 15 -15 16 -67z m316 1 c-3 -3 -12 -4
-19 -1 -8 3 -5 6 6 6 11 1 17 -2 13 -5z"/>
<path d="M2797 650 c7 -25 60 -29 60 -5 0 16 -27 16 -39 0 -4 -6 -8 -2 -8 8 0
9 -4 17 -9 17 -5 0 -7 -9 -4 -20z"/>
<path d="M1090 588 c-51 -35 -75 -90 -75 -171 0 -57 3 -71 20 -83 31 -23 63
-27 96 -14 34 14 66 59 33 46 -17 -6 -17 -5 2 16 44 51 57 125 28 166 -12 18
-24 22 -54 20 -21 -2 -37 -5 -34 -7 2 -2 -6 -17 -18 -33 -41 -58 -30 -168 17
-168 8 0 12 -6 9 -14 -6 -17 -41 -10 -68 13 -15 13 -17 25 -12 74 6 59 15 83
44 119 28 33 57 39 108 22 33 -11 49 -13 57 -5 31 31 31 -2 1 -142 -16 -74
-18 -78 -41 -72 -18 4 -23 1 -23 -15 0 -16 7 -20 33 -20 l32 0 24 125 c12 69
25 135 28 146 5 18 2 20 -28 17 -25 -2 -34 -8 -33 -20 1 -10 -2 -18 -7 -18 -5
0 -9 4 -9 8 0 12 -46 32 -74 32 -13 0 -38 -10 -56 -22z m88 -50 c17 -17 15
-73 -3 -108 -35 -69 -95 -71 -95 -4 0 82 60 150 98 112z"/>
<path d="M2000 583 c-23 -8 -60 -45 -75 -73 -21 -41 -28 -108 -15 -140 21 -51
87 -62 133 -22 15 14 17 13 17 -1 0 -12 9 -17 28 -17 28 0 29 1 51 108 12 59
25 117 28 130 4 19 1 22 -26 22 -21 0 -31 -5 -31 -15 0 -19 -9 -19 -34 0 -20
15 -48 18 -76 8z m-15 -59 c-46 -68 -45 -133 3 -159 l27 -14 -30 -1 c-42 0
-55 16 -55 68 0 51 23 106 54 127 29 21 29 20 1 -21z m147 -4 c-5 -38 -18 -40
-16 -2 1 39 3 44 12 38 5 -3 7 -19 4 -36z m-52 0 c24 -45 -33 -147 -77 -138
-20 3 -29 52 -18 95 13 55 74 82 95 43z m27 -104 c-6 -56 -14 -70 -30 -54 -10
9 -8 20 8 54 11 24 21 43 23 44 2 0 1 -20 -1 -44z"/>
<path d="M2406 560 c-57 -50 -80 -167 -41 -210 28 -31 85 -27 117 8 57 62 71
91 65 138 -3 31 0 47 10 56 13 10 14 4 8 -47 -12 -92 -29 -140 -48 -139 -10 1
-17 -6 -17 -17 0 -14 7 -19 28 -19 28 0 28 1 50 115 13 64 25 122 28 130 5 11
-2 15 -25 15 -21 0 -31 -5 -31 -15 0 -8 -4 -15 -9 -15 -5 0 -14 7 -21 15 -21
26 -75 18 -114 -15z m54 0 c0 -5 -5 -10 -11 -10 -5 0 -7 5 -4 10 3 6 8 10 11
10 2 0 4 -4 4 -10z m-44 -42 c-9 -13 -19 -45 -22 -70 -6 -41 -3 -49 19 -72
l26 -26 -23 0 c-36 0 -49 41 -35 109 6 31 18 64 27 74 21 24 27 14 8 -15z m93
13 c38 -24 -12 -151 -59 -151 -30 0 -42 26 -35 69 12 70 55 107 94 82z"/>
<path d="M315 508 c7 -78 7 -78 -19 -88 -35 -13 -71 4 -61 28 16 40 16 46 1
28 -45 -56 21 -113 82 -70 20 14 22 22 18 86 -3 39 -10 76 -16 82 -9 8 -10 -8
-5 -66z"/>
<path d="M352 548 c3 -7 14 -18 25 -23 12 -6 28 -17 37 -24 14 -11 16 -11 16
2 0 18 -46 57 -67 57 -8 0 -13 -6 -11 -12z"/>
<path d="M444 513 c6 -79 8 -81 92 -85 75 -3 88 4 57 29 -44 35 -61 43 -77 37
-22 -8 -20 -24 2 -24 10 0 27 -7 38 -15 17 -14 15 -15 -26 -9 -70 9 -70 9 -70
64 0 27 -4 50 -10 50 -5 0 -8 -21 -6 -47z"/>
<path d="M390 444 l-45 -23 32 -1 c30 0 63 21 63 41 0 5 -1 8 -2 8 -2 -1 -23
-12 -48 -25z"/>
<path d="M1520 260 c0 -35 3 -36 30 -13 27 24 25 43 -5 43 -21 0 -25 -5 -25
-30z m40 10 c0 -5 -4 -10 -10 -10 -5 0 -10 5 -10 10 0 6 5 10 10 10 6 0 10 -4
10 -10z"/>
<path d="M1970 279 c0 -6 5 -19 11 -30 10 -20 11 -20 24 -2 13 17 14 17 15 1
0 -28 17 -21 29 12 6 18 6 30 0 30 -5 0 -9 -10 -10 -22 l0 -23 -11 23 c-6 12
-15 22 -20 22 -4 0 -8 -10 -9 -22 l0 -23 -9 23 c-10 23 -20 29 -20 11z"/>
<path d="M2125 260 c0 -16 3 -30 8 -30 4 0 7 7 7 15 0 8 5 15 11 15 6 0 9 -7
5 -15 -3 -8 -1 -15 4 -15 17 0 11 25 -10 43 -26 22 -25 22 -25 -13z"/>
<path d="M2353 260 c12 -32 27 -40 27 -15 0 8 -4 15 -10 15 -5 0 -10 7 -10 15
0 8 -4 15 -9 15 -5 0 -4 -13 2 -30z"/>
<path d="M2380 285 c0 -2 5 -16 12 -30 12 -26 32 -36 22 -11 -3 8 -1 17 5 21
13 8 14 25 2 25 -5 0 -12 -8 -14 -17 -4 -17 -5 -17 -6 0 -1 14 -21 26 -21 12z"/>
<path d="M1823 273 c-7 -3 -12 -14 -12 -26 1 -17 2 -18 6 -4 2 9 8 17 13 17 5
0 11 -8 13 -17 4 -14 5 -13 6 4 1 24 -8 33 -26 26z"/>
<path d="M1867 273 c-5 -8 9 -53 17 -53 6 0 1 49 -6 56 -3 3 -8 2 -11 -3z"/>
<path d="M2093 255 c0 -14 3 -28 8 -31 5 -3 9 9 9 25 0 17 -4 31 -9 31 -5 0
-8 -11 -8 -25z"/>
<path d="M2290 256 c0 -14 4 -27 8 -30 5 -3 9 8 9 24 0 17 -4 30 -9 30 -4 0
-8 -11 -8 -24z"/>
<path d="M1588 263 c6 -2 12 -12 12 -21 0 -15 -2 -15 -10 -2 -6 9 -10 10 -10
3 0 -17 14 -23 29 -13 19 11 6 40 -16 39 -11 0 -13 -3 -5 -6z"/>
<path d="M1635 250 c2 -14 5 -29 5 -35 1 -11 29 35 30 49 0 5 -6 3 -14 -3 -11
-9 -15 -9 -20 1 -3 7 -4 2 -1 -12z"/>
<path d="M1681 248 c1 -17 2 -19 6 -5 2 9 8 17 13 17 5 0 11 -8 13 -17 4 -17
5 -17 6 0 0 9 5 17 11 17 5 0 7 -7 4 -15 -4 -8 -1 -15 5 -15 6 0 11 9 11 20 0
16 -7 20 -35 20 -30 0 -35 -3 -34 -22z"/>
<path d="M1762 248 c2 -13 10 -23 18 -23 8 0 16 10 18 23 3 17 -2 22 -18 22
-16 0 -21 -5 -18 -22z m28 2 c0 -5 -4 -10 -10 -10 -5 0 -10 5 -10 10 0 6 5 10
10 10 6 0 10 -4 10 -10z"/>
<path d="M1900 260 c0 -13 11 -13 30 0 12 8 11 10 -7 10 -13 0 -23 -4 -23 -10z"/>
<path d="M2065 257 c-4 -10 -5 -21 -1 -24 10 -10 18 4 13 24 -4 17 -4 17 -12
0z"/>
<path d="M2182 248 c2 -13 10 -23 18 -23 8 0 16 10 18 23 3 17 -2 22 -18 22
-16 0 -21 -5 -18 -22z m28 2 c0 -5 -4 -10 -10 -10 -5 0 -10 5 -10 10 0 6 5 10
10 10 6 0 10 -4 10 -10z"/>
<path d="M2230 251 c0 -11 4 -22 9 -25 16 -10 40 5 38 25 -2 26 -17 24 -17 -2
0 -11 -4 -18 -10 -14 -5 3 -7 12 -3 20 3 8 0 15 -6 15 -6 0 -11 -9 -11 -19z"/>
<path d="M2448 263 c6 -2 12 -12 12 -21 0 -14 -2 -15 -10 -2 -5 8 -12 11 -16
7 -11 -10 12 -31 25 -23 18 12 13 46 -6 45 -11 0 -13 -3 -5 -6z"/>
<path d="M2480 260 c0 -13 11 -13 30 0 12 8 11 10 -7 10 -13 0 -23 -4 -23 -10z"/>
<path d="M2567 250 c3 -11 9 -20 14 -20 11 0 11 3 3 24 -9 23 -23 20 -17 -4z"/>
<path d="M2590 261 c0 -5 6 -14 14 -20 11 -9 15 -8 20 5 9 23 7 31 -4 14 -6
-10 -10 -11 -10 -2 0 6 -4 12 -10 12 -5 0 -10 -4 -10 -9z"/>
<path d="M2653 263 c9 -2 17 -8 17 -13 0 -5 -7 -7 -15 -4 -15 6 -21 -7 -9 -19
11 -11 34 5 34 24 0 13 -7 19 -22 18 -17 -1 -19 -2 -5 -6z"/>
<path d="M2690 260 c0 -13 11 -13 30 0 12 8 11 10 -7 10 -13 0 -23 -4 -23 -10z"/>
<path d="M2530 250 c0 -5 5 -10 10 -10 6 0 10 5 10 10 0 6 -4 10 -10 10 -5 0
-10 -4 -10 -10z"/>
<path d="M1920 239 c0 -5 -5 -7 -12 -3 -7 4 -8 3 -4 -4 4 -6 13 -9 21 -5 17 6
20 23 5 23 -5 0 -10 -5 -10 -11z"/>
<path d="M2491 241 c-9 -6 -10 -11 -2 -15 13 -8 31 1 31 15 0 11 -11 11 -29 0z"/>
<path d="M2701 241 c-9 -6 -10 -11 -2 -15 13 -8 31 1 31 15 0 11 -11 11 -29 0z"/>
</g>
</svg>
